<svg xmlns="http://www.w3.org/2000/svg" width="80" height="80" viewBox="0 0 24 24" fill="none" >
    <defs>
        <linearGradient id="grad1" x1="0%" y1="0%" x2="100%" y2="100%">
            <stop offset="0%" stop-color="#ff0040"/>
            <stop offset="100%" stop-color="#ff8c00"/>
        </linearGradient>
        <filter id="glow" x="-50%" y="-50%" width="200%" height="200%" >
            <feDropShadow dx="0" dy="0" stdDeviation="3" flood-color="#ff4e00" flood-opacity="0.7"/>
            <feDropShadow dx="0" dy="0" stdDeviation="5" flood-color="#ffbb33" flood-opacity="0.5"/>
        </filter>
    </defs>
    <!-- 耳机头带带有渐变和光晕 -->
    <path
            d="M3 18v-6a9 9 0 0 1 18 0v6"
            stroke="url(#grad1)" stroke-width="3" stroke-linecap="round" stroke-linejoin="round"
            filter="url(#glow)"
    />
    <!-- 左耳机 -->
    <path
            d="M21 19a2 2 0 0 1-2 2h-1a2 2 0 0 1-2-2v-3a2 2 0 0 1 2-2h3z"
            fill="url(#grad1)" filter="url(#glow)"
    />
    <!-- 右耳机 -->
    <path
            d="M3 19a2 2 0 0 0 2 2h1a2 2 0 0 0 2-2v-3a2 2 0 0 0-2-2H3z"
            fill="url(#grad1)" filter="url(#glow)"
    />
    <!-- 添加环绕音波动态线条 -->
    <circle cx="12" cy="12" r="8" stroke="url(#grad1)" stroke-width="1" stroke-dasharray="8 4" fill="none" />
<!--    <circle cx="12" cy="12" r="10" stroke="url(#grad1)" stroke-width="1" stroke-dasharray="4 4" fill="none" opacity="0.6"/>-->
</svg>
